<svg xmlns="http://www.w3.org/2000/svg" width="100%" height="100%" viewBox="0 0 24 24" fill="#3E54AC">
  <path d="M13.9405 6.33706C15.5735 7.26475 16.8567 7.99375 17.7709 8.66154C18.6913 9.33392 19.3721 10.0367 19.6159 10.9632C19.7947 11.6427 19.7947 12.3574 19.6159 13.0369C19.3721 13.9634 18.6913 14.6662 17.7709 15.3386C16.8567 16.0064 15.5735 16.7354 13.9406 17.663L13.9406 17.663C12.3632 18.5592 11.033 19.3149 10.0232 19.7444C9.0053 20.1774 8.07729 20.3968 7.17536 20.1412C6.51252 19.9534 5.90941 19.5969 5.42356 19.1067C4.76419 18.4414 4.49951 17.522 4.37429 16.4154C4.24998 15.317 4.24999 13.879 4.25 12.0502V12.0502V11.95V11.95C4.24999 10.1211 4.24998 8.68315 4.37429 7.5847C4.49951 6.47816 4.76419 5.55867 5.42356 4.89341C5.90941 4.40323 6.51252 4.04672 7.17536 3.8589C8.07729 3.60331 9.0053 3.82275 10.0232 4.25571C11.033 4.68522 12.3632 5.4409 13.9405 6.33706Z" fill="#ECF2FF" width="100%" height="100%"></path>
</svg>
