<svg xmlns="http://www.w3.org/2000/svg" xmlns:xlink="http://www.w3.org/1999/xlink" viewBox="0 0 1080 1080" width="1080" height="1080" preserveAspectRatio="xMidYMid meet" style="width: 100%; height: 100%; transform: translate3d(0px, 0px, 0px); content-visibility: visible;"><defs><clipPath id="__lottie_element_18"><rect width="1080" height="1080" x="0" y="0"></rect></clipPath></defs><g clip-path="url(#__lottie_element_18)"><g transform="matrix(1,0,0,1,65.010009765625,65)" opacity="1" style="display: block;"><g opacity="1" transform="matrix(1,0,0,1,474.989013671875,475)"><path stroke-linecap="round" stroke-linejoin="round" fill-opacity="0" stroke="rgb(62,84,172)" stroke-opacity="1" stroke-width="40" d=" M374.989013671875,0 C374.989013671875,207.09100341796875 207.1020050048828,375 0.010999999940395355,375 C-207.1020050048828,375 -374.989013671875,207.09100341796875 -374.989013671875,0 C-374.989013671875,-207.09100341796875 -207.1020050048828,-375 0.010999999940395355,-375 C207.1020050048828,-375 374.989013671875,-207.09100341796875 374.989013671875,0z"></path></g><g opacity="1" transform="matrix(1,0,0,1,474.989013671875,475)"><path stroke-linecap="round" stroke-linejoin="round" fill-opacity="0" stroke="rgb(62,84,172)" stroke-opacity="1" stroke-width="40" d=" M99.3489990234375,0 C99.3489990234375,54.86600112915039 54.869998931884766,99.35199737548828 0.003000000026077032,99.35199737548828 C-54.869998931884766,99.35199737548828 -99.3489990234375,54.86600112915039 -99.3489990234375,0 C-99.3489990234375,-54.86600112915039 -54.86899948120117,-99.35199737548828 0.003000000026077032,-99.35199737548828 C54.869998931884766,-99.35199737548828 99.3489990234375,-54.86600112915039 99.3489990234375,0z"></path></g></g><g transform="matrix(0.10166047513484955,0.994819164276123,-0.994819164276123,0.10166047513484955,833.623046875,179.54367065429688)" opacity="1" style="display: block;"><g opacity="1" transform="matrix(1,0,0,1,214.3730010986328,443.1189880371094)"><path stroke-linecap="round" stroke-linejoin="round" fill-opacity="0" stroke="rgb(0,3,7)" stroke-opacity="1" stroke-width="40" d=" M114.37300109863281,114.37300109863281 C-11.96399974822998,114.37300109863281 -114.37300109863281,11.949999809265137 -114.37300109863281,-114.37300109863281"></path></g><g opacity="1" transform="matrix(1,0,0,1,443.11199951171875,214.3730010986328)"><path stroke-linecap="round" stroke-linejoin="round" fill-opacity="0" stroke="rgb(0,3,7)" stroke-opacity="1" stroke-width="40" d=" M-114.36599731445312,-114.37300109863281 C11.956999778747559,-114.37300109863281 114.36599731445312,-11.949999809265137 114.36599731445312,114.37300109863281"></path></g></g></g></svg>